# xmcd CD database file
#
# Track frame offsets:
#	150
#	12977
#	39457
#	71242
#	103970
#	141852
#	157957
#	177340
#	191447
#	207475
#	224425
#
# Disc length: 3180 seconds
#
# Revision: 0
# Processed by: cddbd v1.5.1PL0 Copyright (c) Steve Scherf et al.
# Submitted via: CDex 1.51
#
DISCID=a60c6a0b
DTITLE=Eje Thelin and Swedish radio jazz group - Raggruppamento
DYEAR=1991
DGENRE=Jazz
TTITLE0=Raggruppamento 1
TTITLE1=Vision
TTITLE2=Gumption
TTITLE3=Things
TTITLE4=Gloomy
TTITLE5=Neoteny
TTITLE6=Rain
TTITLE7=Jumnien
TTITLE8=Indeed
TTITLE9=Poem
TTITLE10=Raggruppamento 2
EXTD=YEAR: 1991
EXTT0=
EXTT1=
EXTT2=
EXTT3=
EXTT4=
EXTT5=
EXTT6=
EXTT7=
EXTT8=
EXTT9=
EXTT10=
PLAYORDER=
